<?xml version="1.0" encoding="UTF-8" standalone="no"?>
<svg
   version="1.1"
   width="2048"
   height="2048"
   style="clip-rule:evenodd;fill-rule:evenodd;image-rendering:optimizeQuality;shape-rendering:geometricPrecision;text-rendering:geometricPrecision"
   id="svg34"
   sodipodi:docname="HexDesign.svg"
   inkscape:export-filename="..\Documents\A_Websites\Game Studios\content\v\HexDesign.svg"
   inkscape:export-xdpi="96"
   inkscape:export-ydpi="96"
   inkscape:version="1.3 (0e150ed6c4, 2023-07-21)"
   xmlns:inkscape="http://www.inkscape.org/namespaces/inkscape"
   xmlns:sodipodi="http://sodipodi.sourceforge.net/DTD/sodipodi-0.dtd"
   xmlns="http://www.w3.org/2000/svg"
   xmlns:svg="http://www.w3.org/2000/svg">
  <defs
     id="defs34" />
  <sodipodi:namedview
     id="namedview34"
     pagecolor="#505050"
     bordercolor="#eeeeee"
     borderopacity="1"
     inkscape:showpageshadow="0"
     inkscape:pageopacity="0"
     inkscape:pagecheckerboard="0"
     inkscape:deskcolor="#505050"
     inkscape:export-bgcolor="#ffffff00"
     inkscape:zoom="0.28070205"
     inkscape:cx="623.43684"
     inkscape:cy="1052.7176"
     inkscape:window-width="1920"
     inkscape:window-height="1009"
     inkscape:window-x="3832"
     inkscape:window-y="685"
     inkscape:window-maximized="1"
     inkscape:current-layer="svg34" />
  <g
     id="g2">
    <path
       style="opacity:1"
       fill="#154ecc"
       d="m 1665.5,473.5 c -30.67,0.667 -61.33,1.333 -92,2 0,14.333 0,28.667 0,43 39.67,0 79.33,0 119,0 9.4,17.135 19.07,34.135 29,51 -80.5,0.999 -161.16,1.333 -242,1 -0.33,14.843 0,29.51 1,44 89.4,-0.331 178.74,0.003 268,1 10.07,18.468 20.4,36.801 31,55 -68.67,0 -137.33,0 -206,0 0,14.667 0,29.333 0,44 77.33,0 154.67,0 232,0 42.99,74.639 85.99,149.306 129,224 -133.09,231.19 -266.43,462.19 -400,693 -79.17,0.33 -158.17,0 -237,-1 91.24,-158.8 182.74,-317.47 274.5,-476 1.19,-1.54 1.52,-3.21 1,-5 -4.17,-7.67 -8.83,-15.01 -14,-22 -96.27,168.23 -192.77,336.23 -289.5,504 -19.51,0.33 -38.84,0 -58,-1 105.89,-184.11 212.06,-368.11 318.5,-552 0.55,-2.92 -0.12,-5.59 -2,-8 -3.26,-5.54 -6.76,-10.87 -10.5,-16 -111.6,192.2 -222.93,384.53 -334,577 -19.51,0.33 -38.84,0 -58,-1 119.9,-208.14 240.07,-416.14 360.5,-624 1.3,-1.86 1.63,-3.86 1,-6 -3.93,-6.871 -8.1,-13.538 -12.5,-20 -125.6,216.86 -250.93,433.86 -376,651 -19.51,0.33 -38.84,0 -58,-1 134.97,-233.98 269.97,-467.98 405,-702 -4.31,-7.624 -8.97,-14.957 -14,-22 -139.69,242.02 -279.36,484.02 -419,726 -19.333,0 -38.667,0 -58,0 148.89,-258.78 298.06,-517.44 447.5,-776 0.67,-1.333 0.67,-2.667 0,-4 -3.97,-6.8 -8.14,-13.466 -12.5,-20 -154.52,266.37 -308.52,533.03 -462,800 -19.667,0 -39.333,0 -59,0 162.94,-282.78 326.11,-565.45 489.5,-848 1.3,-1.865 1.63,-3.865 1,-6 -3.68,-6.713 -7.85,-13.046 -12.5,-19 -168.39,290.4 -336.39,581.07 -504,872 -19.507,0.33 -38.841,0 -58,-1 177.529,-307.89 355.2,-615.72 533,-923.5 -4.63,-7.417 -9.13,-14.917 -13.5,-22.5 -182.27,316.23 -364.774,632.23 -547.5,948 -7.674,0.17 -15.341,0 -23,-0.5 -5.805,-9.78 -11.471,-19.61 -17,-29.5 -0.111,-0.62 -0.444,-1.12 -1,-1.5 186.586,-322.5 372.92,-645.17 559,-968 -4.12,-7.749 -8.62,-15.249 -13.5,-22.5 -186.03,321.871 -371.866,643.87 -557.5,966 -0.457,0.8 -1.124,1.13 -2,1 -9.321,-16.64 -18.655,-33.31 -28,-50 184.638,-321.27 369.8,-642.272 555.5,-963 0.97,-1.774 1.8,-3.607 2.5,-5.5 -3.53,-7.56 -7.7,-14.727 -12.5,-21.5 -186.53,322.396 -373.027,644.73 -559.5,967 -9.165,-17 -18.832,-33.67 -29,-50 186.057,-323.11 372.39,-646.109 559,-969 -3.71,-9.428 -10.71,-12.595 -21,-9.5 -182.96,316.752 -365.793,633.58 -548.5,950.5 -0.759,1.56 -1.926,2.56 -3.5,3 -9.08,-16.5 -18.414,-32.83 -28,-49 4.194,-8.73 8.694,-17.4 13.5,-26 169.546,-292.59 338.712,-585.421 507.5,-878.5 -9.02,-0.832 -18.02,-0.665 -27,0.5 -168.997,293.631 -338.33,586.96 -508,880 -9.667,-16.67 -19.333,-33.33 -29,-50 159.264,-277.02 318.931,-553.857 479,-830.5 -9.02,-0.832 -18.02,-0.665 -27,0.5 -154.855,269.057 -310.188,537.72 -466,806 -9.165,-17 -18.832,-33.67 -29,-50 144.931,-252.357 290.264,-504.523 436,-756.5 -8.912,-0.816 -17.745,-0.65 -26.5,0.5 -140.333,243.333 -280.667,486.667 -421,730 -0.671,0.75 -1.504,1.09 -2.5,1 -9.333,-16.33 -18.667,-32.67 -28,-49 130.345,-227.853 261.345,-455.353 393,-682.5 -8.912,-0.816 -17.745,-0.65 -26.5,0.5 -126.608,219.56 -253.441,438.893 -380.5,658 -9.667,-16.67 -19.333,-33.33 -29,-50 116.402,-202.469 233.069,-404.803 350,-607 0.543,-0.06 0.876,-0.393 1,-1 -9.158,-1.322 -18.158,-1.322 -27,0 -111.578,194.095 -223.412,388.095 -335.5,582 -0.708,0.88 -1.542,1.55 -2.5,2 -9.177,-17.03 -18.843,-33.7 -29,-50 102.264,-178.357 204.931,-356.523 308,-534.5 -8.686,-0.832 -17.353,-0.665 -26,0.5 -97.855,170.39 -196.188,340.39 -295,510 C 351.267,970.695 342.101,954.361 334,937.5 467.167,707 600.333,476.5 733.5,246 c 267,-0.667 534,-0.667 801,0 43.92,75.739 87.59,151.572 131,227.5 z"
       id="path2" />
  </g>
  <g
     id="g5">
    <path
       style="opacity:1"
       fill="#d1ddff"
       d="m 401.5,475.5 c 8.692,-0.331 17.359,0.002 26,1 -128.833,224.333 -257.667,448.667 -386.5,673 -4.2529,-6.84 -8.2529,-13.84 -12,-21 -0.6667,-1.33 -0.6667,-2.67 0,-4 124.394,-216.222 248.561,-432.555 372.5,-649 z"
       id="path5" />
  </g>
  <g
     id="g6">
    <path
       style="opacity:1"
       fill="#d1ddff"
       d="m 486.5,475.5 c 8.673,-0.166 17.34,0 26,0.5 C 369.126,724.582 225.626,973.082 82,1221.5 c -3.7471,-7.16 -7.7471,-14.16 -12,-21 -0.6667,-1.33 -0.6667,-2.67 0,-4 138.845,-240.361 277.678,-480.694 416.5,-721 z"
       id="path6" />
  </g>
  <g
     id="g7">
    <path
       style="opacity:1"
       fill="#d1ddff"
       d="m 571.5,475.5 c 8.692,-0.331 17.359,0.002 26,1 -157.7,272.537 -315.2,545.2 -472.5,818 -4.554,-7.27 -8.721,-14.77 -12.5,-22.5 152.879,-265.59 305.879,-531.093 459,-796.5 z"
       id="path7" />
  </g>
  <g
     id="g8">
    <path
       style="opacity:1"
       fill="#cfdcfe"
       d="m 374.5,1010.5 c -68.904,119.42 -138.071,238.76 -207.5,358 -3.414,-6.5 -7.081,-12.83 -11,-19 -1.187,-1.54 -1.52,-3.21 -1,-5 69.109,-119.22 137.943,-238.56 206.5,-358 98.812,-169.61 197.145,-339.61 295,-510 8.647,-1.165 17.314,-1.332 26,-0.5 -103.069,177.977 -205.736,356.143 -308,534.5 z"
       id="path8" />
  </g>
  <g
     id="g9">
    <path
       style="opacity:1"
       fill="#6f92e4"
       d="m 741.5,476.5 c 8.842,-1.322 17.842,-1.322 27,0 -0.124,0.607 -0.457,0.94 -1,1 -8.484,-0.993 -17.151,-1.326 -26,-1 z"
       id="path9" />
  </g>
  <g
     id="g10">
    <path
       style="opacity:1"
       fill="#cfdcfe"
       d="m 460.5,1158.5 c -69.702,118.91 -138.869,238.24 -207.5,358 -3.747,-7.16 -7.747,-14.16 -12,-21 -0.667,-1.33 -0.667,-2.67 0,-4 69.029,-118.73 137.529,-237.73 205.5,-357 127.059,-219.107 253.892,-438.44 380.5,-658 8.755,-1.15 17.588,-1.316 26.5,-0.5 -131.655,227.147 -262.655,454.647 -393,682.5 z"
       id="path10" />
  </g>
  <g
     id="g11">
    <path
       style="opacity:1"
       fill="#cfdbfe"
       d="m 502.5,1232.5 c -69.226,118.77 -138.226,237.77 -207,357 -4.822,-6.97 -9.156,-14.3 -13,-22 68.3,-118.8 136.8,-237.46 205.5,-356 0.49,-1.29 0.657,-2.63 0.5,-4 0.996,0.09 1.829,-0.25 2.5,-1 140.333,-243.333 280.667,-486.667 421,-730 8.755,-1.15 17.588,-1.316 26.5,-0.5 -145.736,251.977 -291.069,504.143 -436,756.5 z"
       id="path11" />
  </g>
  <g
     id="g12">
    <path
       style="opacity:1"
       fill="#cfdbfe"
       d="m 545.5,1306.5 c -69.392,119.11 -138.559,238.44 -207.5,358 -4.167,-7.67 -8.333,-15.33 -12.5,-23 69.467,-119.28 138.134,-238.94 206,-359 155.812,-268.28 311.145,-536.943 466,-806 8.98,-1.165 17.98,-1.332 27,-0.5 -160.069,276.643 -319.736,553.48 -479,830.5 z"
       id="path12" />
  </g>
  <g
     id="g13">
    <path
       style="opacity:1"
       fill="#cfdbfe"
       d="m 588.5,1380.5 c -69.204,117.38 -137.704,235.38 -205.5,354 -0.833,1 -1.667,2 -2.5,3 -5.266,-7.21 -9.433,-14.87 -12.5,-23 69.109,-119.22 137.943,-238.56 206.5,-358 169.67,-293.04 339.003,-586.369 508,-880 8.98,-1.165 17.98,-1.332 27,-0.5 -168.788,293.079 -337.954,585.91 -507.5,878.5 -4.806,8.6 -9.306,17.27 -13.5,26 z"
       id="path13" />
  </g>
  <g
     id="g14">
    <path
       style="opacity:1"
       fill="#cfdbfe"
       d="m 630.5,1454.5 c -67.1,115.36 -134.1,230.86 -201,346.5 -4,0.67 -8,0.67 -12,0 -2.167,-3.5 -4.333,-7 -6.5,-10.5 67.497,-119.31 135.83,-238.31 205,-357 0.49,-1.29 0.657,-2.63 0.5,-4 1.574,-0.44 2.741,-1.44 3.5,-3 182.707,-316.92 365.54,-633.748 548.5,-950.5 10.29,-3.095 17.29,0.072 21,9.5 -186.61,322.891 -372.943,645.89 -559,969 z"
       id="path14" />
  </g>
  <g
     id="g15"
     style="fill:#5370c0;fill-opacity:1">
    <path
       style="opacity:1;fill:#5370c0;fill-opacity:1"
       fill="#d0dcfe"
       d="m 1666.5,474.5 c 0.33,0 0.67,0 1,0 83.83,0.999 167.83,1.333 252,1 0,14.333 0,28.667 0,43 -75.67,0 -151.33,0 -227,0 -39.67,0 -79.33,0 -119,0 0,-14.333 0,-28.667 0,-43 31.17,0.331 62.17,-0.002 93,-1 z"
       id="path15" />
  </g>
  <g
     id="g16">
    <path
       style="opacity:1"
       fill="#cfdcfe"
       d="m 741.5,476.5 c 8.849,-0.326 17.516,0.007 26,1 -116.931,202.197 -233.598,404.531 -350,607 -68.904,119.42 -138.071,238.76 -207.5,358 -4.253,-6.84 -8.253,-13.84 -12,-21 -0.52,-1.79 -0.187,-3.46 1,-5 68.967,-118.28 137.134,-236.94 204.5,-356 0.958,-0.45 1.792,-1.12 2.5,-2 112.088,-193.905 223.922,-387.905 335.5,-582 z"
       id="path16" />
  </g>
  <g
     id="g17">
    <path
       style="opacity:1"
       fill="#cfdbfe"
       d="m 673.5,1527.5 c -52.892,90.77 -105.559,181.77 -158,273 -8.982,1.17 -17.982,1.33 -27,0.5 57.402,-98.64 114.402,-197.48 171,-296.5 186.473,-322.27 372.97,-644.604 559.5,-967 4.8,6.773 8.97,13.94 12.5,21.5 -0.7,1.893 -1.53,3.726 -2.5,5.5 -185.7,320.728 -370.862,641.73 -555.5,963 z"
       id="path17" />
  </g>
  <g
     id="g19"
     style="fill:#5370c0;fill-opacity:1">
    <path
       style="opacity:1;fill:#5370c0;fill-opacity:1"
       fill="#d1ddfe"
       d="m 1722.5,570.5 c 98.67,0 197.33,0 296,0 0,14.667 0,29.333 0,44 -90.17,-0.333 -180.17,10e-4 -270,1 -89.26,-0.997 -178.6,-1.331 -268,-1 0,-14.333 0,-28.667 0,-43 80.84,0.333 161.5,-10e-4 242,-1 z"
       id="path19" />
  </g>
  <g
     id="g20">
    <path
       style="opacity:1"
       fill="#cfdbfe"
       d="m 716.5,1602.5 c -0.996,-0.09 -1.829,0.25 -2.5,1 -37.833,65.67 -75.667,131.33 -113.5,197 -8.982,1.17 -17.982,1.33 -27,0.5 39.293,-67.42 78.46,-134.92 117.5,-202.5 4.059,-6.79 7.559,-13.79 10.5,-21 0.876,0.13 1.543,-0.2 2,-1 185.634,-322.13 371.47,-644.129 557.5,-966 4.88,7.251 9.38,14.751 13.5,22.5 -186.08,322.83 -372.414,645.5 -559,968 0.556,0.38 0.889,0.88 1,1.5 z"
       id="path20" />
  </g>
  <g
     id="g21"
     style="fill:#5370c0;fill-opacity:1">
    <path
       style="opacity:1;fill:#5370c0;fill-opacity:1"
       fill="#cfdbfe"
       d="m 1779.5,670.5 c 0.33,0 0.67,0 1,0 46.16,0.999 92.5,1.332 139,1 0,14 0,28 0,42 -38.17,-0.332 -76.17,10e-4 -114,1 -77.33,0 -154.67,0 -232,0 0,-14.667 0,-29.333 0,-44 68.67,0 137.33,0 206,0 z"
       id="path21" />
  </g>
  <g
     id="g22">
    <path
       style="opacity:1"
       fill="#cfdbfe"
       d="m 784.5,1630.5 c -0.838,0.34 -1.172,1.01 -1,2 -32.306,55.94 -64.64,111.94 -97,168 -8.982,1.17 -17.982,1.33 -27,0.5 32.736,-55.98 65.069,-112.14 97,-168.5 182.726,-315.77 365.23,-631.77 547.5,-948 4.37,7.583 8.87,15.083 13.5,22.5 -177.8,307.78 -355.471,615.61 -533,923.5 z"
       id="path22" />
  </g>
  <g
     id="g24">
    <path
       style="opacity:1"
       fill="#cfdbfe"
       d="m 868.5,1632.5 c -32.322,55.97 -64.655,111.97 -97,168 -8.667,1.33 -17.333,1.33 -26,0 32.024,-56.05 64.024,-112.05 96,-168 0.667,0 1,-0.33 1,-1 167.61,-290.93 335.61,-581.6 504,-872 4.65,5.954 8.82,12.287 12.5,19 0.63,2.135 0.3,4.135 -1,6 -163.39,282.55 -326.56,565.22 -489.5,848 z"
       id="path24" />
  </g>
  <g
     id="g25">
    <path
       style="opacity:1"
       fill="#cfdbfe"
       d="m 954.5,1632.5 c -33.036,55.57 -65.536,111.57 -97.5,168 -8.774,1.32 -17.607,1.32 -26.5,0 32.345,-56.03 64.678,-112.03 97,-168 153.48,-266.97 307.48,-533.63 462,-800 4.36,6.534 8.53,13.2 12.5,20 0.67,1.333 0.67,2.667 0,4 -149.44,258.56 -298.61,517.22 -447.5,776 z"
       id="path25" />
  </g>
  <g
     id="g26">
    <path
       style="opacity:1"
       fill="#cfdbfe"
       d="m 1040.5,1630.5 c -0.84,0.34 -1.17,1.01 -1,2 -32.73,55.77 -65.226,111.77 -97.5,168 -8.774,1.32 -17.607,1.32 -26.5,0 32.345,-56.03 64.678,-112.03 97,-168 139.64,-241.98 279.31,-483.98 419,-726 5.03,7.043 9.69,14.376 14,22 -135.03,234.02 -270.03,468.02 -405,702 z"
       id="path26" />
  </g>
  <g
     id="g27">
    <path
       style="opacity:1"
       fill="#cfdbfe"
       d="m 1125.5,1630.5 c -0.84,0.34 -1.17,1.01 -1,2 -32.77,56.02 -65.43,112.19 -98,168.5 -8.67,0.67 -17.33,0.67 -26,0 32.22,-56.28 64.55,-112.44 97,-168.5 0.67,0 1,-0.33 1,-1 125.07,-217.14 250.4,-434.14 376,-651 4.4,6.462 8.57,13.129 12.5,20 0.63,2.14 0.3,4.14 -1,6 -120.43,207.86 -240.6,415.86 -360.5,624 z"
       id="path27" />
  </g>
  <g
     id="g28">
    <path
       style="opacity:1"
       fill="#cfdbfe"
       d="m 1211.5,1630.5 c -0.84,0.34 -1.17,1.01 -1,2 -32.73,55.77 -65.23,111.77 -97.5,168 -8.77,1.32 -17.61,1.32 -26.5,0 32.35,-56.03 64.68,-112.03 97,-168 0,-0.33 0,-0.67 0,-1 111.07,-192.47 222.4,-384.8 334,-577 3.74,5.13 7.24,10.46 10.5,16 1.88,2.41 2.55,5.08 2,8 -106.44,183.89 -212.61,367.89 -318.5,552 z"
       id="path28" />
  </g>
  <g
     id="g29">
    <path
       style="opacity:1"
       fill="#cfdbfe"
       d="m 1297.5,1630.5 c -0.84,0.34 -1.17,1.01 -1,2 -32.31,55.94 -64.64,111.94 -97,168 -8.98,1.17 -17.98,1.33 -27,0.5 32.22,-56.28 64.55,-112.44 97,-168.5 0,-0.33 0,-0.67 0,-1 96.73,-167.77 193.23,-335.77 289.5,-504 5.17,6.99 9.83,14.33 14,22 0.52,1.79 0.19,3.46 -1,5 -91.76,158.53 -183.26,317.2 -274.5,476 z"
       id="path29" />
  </g>
  <g
     id="g30">
    <path
       style="opacity:1"
       fill="#507ad9"
       d="m 784.5,1630.5 c 19.159,1 38.493,1.33 58,1 0,0.67 -0.333,1 -1,1 -19.333,0 -38.667,0 -58,0 -0.172,-0.99 0.162,-1.66 1,-2 z"
       id="path30" />
  </g>
  <g
     id="g31">
    <path
       style="opacity:1"
       fill="#507ad9"
       d="m 1040.5,1630.5 c 19.16,1 38.49,1.33 58,1 0,0.67 -0.33,1 -1,1 -19.33,0 -38.67,0 -58,0 -0.17,-0.99 0.16,-1.66 1,-2 z"
       id="path31" />
  </g>
  <g
     id="g32">
    <path
       style="opacity:1"
       fill="#4f7ad9"
       d="m 1125.5,1630.5 c 19.16,1 38.49,1.33 58,1 0,0.33 0,0.67 0,1 -19.67,0 -39.33,0 -59,0 -0.17,-0.99 0.16,-1.66 1,-2 z"
       id="path32" />
  </g>
  <g
     id="g33">
    <path
       style="opacity:1"
       fill="#4f7ad9"
       d="m 1211.5,1630.5 c 19.16,1 38.49,1.33 58,1 0,0.33 0,0.67 0,1 -19.67,0 -39.33,0 -59,0 -0.17,-0.99 0.16,-1.66 1,-2 z"
       id="path33" />
  </g>
  <g
     id="g34">
    <path
       style="opacity:1"
       fill="#4f7ad9"
       d="m 1297.5,1630.5 c 78.83,1 157.83,1.33 237,1 -79.16,1 -158.5,1.33 -238,1 -0.17,-0.99 0.16,-1.66 1,-2 z"
       id="path34" />
  </g>
</svg>
