<?xml version="1.0" encoding="UTF-8" standalone="no"?>
<!-- Created with Inkscape (http://www.inkscape.org/) -->

<svg
   width="511.99997"
   height="511.99997"
   viewBox="0 0 135.46666 135.46666"
   version="1.1"
   id="svg1"
   xml:space="preserve"
   inkscape:version="1.3 (0e150ed6c4, 2023-07-21)"
   sodipodi:docname="logo.svg"
   inkscape:export-filename="content\v\logo-square-light.svg"
   inkscape:export-xdpi="96"
   inkscape:export-ydpi="96"
   xmlns:inkscape="http://www.inkscape.org/namespaces/inkscape"
   xmlns:sodipodi="http://sodipodi.sourceforge.net/DTD/sodipodi-0.dtd"
   xmlns="http://www.w3.org/2000/svg"
   xmlns:svg="http://www.w3.org/2000/svg"><sodipodi:namedview
     id="namedview1"
     pagecolor="#20418e"
     bordercolor="#eeeeee"
     borderopacity="1"
     inkscape:showpageshadow="0"
     inkscape:pageopacity="0"
     inkscape:pagecheckerboard="0"
     inkscape:deskcolor="#505050"
     inkscape:document-units="mm"
     inkscape:zoom="0.64"
     inkscape:cx="132.8125"
     inkscape:cy="-16.40625"
     inkscape:window-width="1920"
     inkscape:window-height="1009"
     inkscape:window-x="3832"
     inkscape:window-y="685"
     inkscape:window-maximized="1"
     inkscape:current-layer="layer1"
     inkscape:export-bgcolor="#20418eff" /><defs
     id="defs1" /><g
     inkscape:label="Layer 1"
     inkscape:groupmode="layer"
     id="layer1"><rect
       style="font-variation-settings:'wght' 800;fill:#20418e;fill-opacity:1;stroke-width:43.0027;stroke-linecap:round"
       id="rect12"
       width="135.46666"
       height="135.46666"
       x="0"
       y="0"
       inkscape:export-filename=".\rect12.svg"
       inkscape:export-xdpi="96"
       inkscape:export-ydpi="96" /><path
       d="M 36.963986,91.315907 V 53.396123 h 19.393261 q 7.475614,0 11.15925,2.762727 3.683636,2.708556 3.683636,7.150588 0,2.92524 -1.570962,5.146256 -1.516791,2.166845 -4.33369,3.466952 -2.762727,1.245936 -6.608876,1.245936 l 1.083422,-2.600214 q 4.008663,0 6.988075,1.245936 2.979411,1.191764 4.604545,3.521122 1.679305,2.275187 1.679305,5.579626 0,4.929572 -4.008663,7.692299 -3.954492,2.708556 -11.59262,2.708556 z m 10.617539,-7.74647 h 8.992406 q 2.762727,0 4.171176,-0.920909 1.462621,-0.975081 1.462621,-2.925241 0,-1.95016 -1.462621,-2.871069 -1.408449,-0.97508 -4.171176,-0.97508 h -9.750802 v -7.421444 h 8.125668 q 2.708556,0 4.062834,-0.920909 1.354278,-0.920909 1.354278,-2.762727 0,-1.841818 -1.354278,-2.708556 -1.354278,-0.920909 -4.062834,-0.920909 h -7.367272 z m 31.039997,7.74647 V 53.396123 H 89.34741 v 37.919784 z m 26.435558,0 V 61.900989 H 93.410287 v -8.504866 h 33.965293 v 8.504866 h -11.59262 v 29.414918 z"
       id="text2"
       style="font-size:192px;font-family:Montserrat;-inkscape-font-specification:'Montserrat, @wght=800';font-variation-settings:'wght' 800;white-space:pre;fill:#ffffff;fill-opacity:1;stroke-width:4.26544;stroke-linecap:round"
       aria-label="BIT" /><path
       style="font-size:192px;font-family:Montserrat;-inkscape-font-specification:'Montserrat, @wght=800';font-variation-settings:'wght' 800;white-space:pre;fill:#ffffff;fill-opacity:1;stroke-width:4.26544;stroke-linecap:round"
       d="m 23.675025,23.987055 h 17.605614 v 8.017326 H 23.675025 Z m 0.758395,14.951229 h 19.82663 v 8.288182 H 13.815881 V 9.3066812 H 43.555826 V 17.594863 H 24.43342 Z M 45.997267,47.226466 62.57363,24.20374 62.519459,31.841867 46.59315,9.3066812 H 58.673309 L 68.85748,23.987055 63.711224,24.041226 73.732881,9.3066812 h 11.59262 L 69.399191,31.408498 V 23.824542 L 86.192238,47.226466 H 73.841223 L 63.494539,31.787696 h 4.929572 l -10.18417,15.43877 z m 37.207984,0 L 99.944127,9.3066812 H 110.5075 L 127.30055,47.226466 H 116.1413 L 103.03188,14.56128 h 4.22535 L 94.14782,47.226466 Z m 9.154916,-7.367273 2.76273,-7.908983 h 18.526523 l 2.76273,7.908983 z"
       id="text11"
       aria-label="EXA" /><path
       style="font-size:15.5198px;font-family:Montserrat;-inkscape-font-specification:'Montserrat, @wght=800';font-variation-settings:'wght' 800;fill:#88a3e2;stroke-width:8.79855;stroke-linecap:round"
       d="m 57.606512,126.33303 q -1.334703,0 -2.576287,-0.32592 -1.226064,-0.34143 -2.002054,-0.8691 l 1.008787,-2.2659 q 0.729431,0.4656 1.676138,0.77599 0.962228,0.29488 1.908936,0.29488 0.636312,0 1.024307,-0.10864 0.387995,-0.12416 0.558713,-0.31039 0.186237,-0.20176 0.186237,-0.4656 0,-0.37247 -0.341435,-0.58975 -0.341436,-0.21728 -0.884629,-0.35696 -0.543193,-0.13967 -1.210544,-0.27935 -0.651832,-0.13968 -1.319184,-0.35696 -0.651831,-0.21727 -1.195024,-0.55871 -0.543193,-0.35696 -0.884629,-0.91567 -0.341435,-0.57423 -0.341435,-1.44334 0,-0.97775 0.527673,-1.76926 0.543193,-0.79151 1.614059,-1.27262 1.070866,-0.48111 2.669406,-0.48111 1.070866,0 2.095173,0.24831 1.039826,0.2328 1.846856,0.69839 l -0.946708,2.28141 q -0.77599,-0.41903 -1.53646,-0.62079 -0.76047,-0.21727 -1.474381,-0.21727 -0.636312,0 -1.024307,0.13967 -0.387995,0.12416 -0.558713,0.34144 -0.170718,0.21728 -0.170718,0.49663 0,0.35696 0.325916,0.57424 0.341436,0.20175 0.884629,0.34143 0.558713,0.12416 1.210544,0.26384 0.667352,0.13968 1.319183,0.35695 0.667352,0.20176 1.210545,0.55872 0.543193,0.34143 0.869109,0.91566 0.341435,0.55872 0.341435,1.41231 0,0.9467 -0.543193,1.75373 -0.527673,0.79151 -1.598539,1.27263 -1.055347,0.48111 -2.669406,0.48111 z m 8.380678,-0.21728 v -8.42725 h -3.336757 v -2.43661 h 9.730915 v 2.43661 h -3.321237 v 8.42725 z m 12.385876,0.21728 q -2.405569,0 -3.755792,-1.31918 -1.350222,-1.31919 -1.350222,-3.74027 v -6.02169 h 3.07292 v 5.92857 q 0,1.39678 0.543193,2.00205 0.558713,0.60527 1.520941,0.60527 0.962227,0 1.50542,-0.60527 0.543193,-0.60527 0.543193,-2.00205 v -5.92857 h 3.026361 v 6.02169 q 0,2.42108 -1.350222,3.74027 -1.350223,1.31918 -3.755792,1.31918 z m 7.185656,-0.21728 v -10.86386 h 5.137054 q 1.800297,0 3.166039,0.66735 1.365742,0.66736 2.126213,1.8779 0.77599,1.21054 0.77599,2.88668 0,1.66062 -0.77599,2.88669 -0.760471,1.21054 -2.126213,1.87789 -1.365742,0.66735 -3.166039,0.66735 z m 3.07292,-2.45213 h 1.939975 q 0.931188,0 1.61406,-0.34143 0.698391,-0.35696 1.086386,-1.02431 0.387995,-0.68287 0.387995,-1.61406 0,-0.9467 -0.387995,-1.61406 -0.387995,-0.66735 -1.086386,-1.00878 -0.682872,-0.35696 -1.61406,-0.35696 h -1.939975 z m 9.746439,2.45213 V 115.25189 H 101.451 v 10.86386 z m 10.739709,0.21728 q -1.30366,0 -2.40557,-0.41903 -1.1019,-0.41904 -1.92445,-1.17951 -0.80703,-0.77599 -1.25711,-1.8003 -0.45007,-1.0243 -0.45007,-2.25037 0,-1.22606 0.45007,-2.25037 0.45008,-1.0243 1.25711,-1.78477 0.82255,-0.77599 1.92445,-1.19503 1.10191,-0.41903 2.40557,-0.41903 1.31919,0 2.40557,0.41903 1.10191,0.41904 1.90894,1.19503 0.80703,0.76047 1.2571,1.78477 0.4656,1.02431 0.4656,2.25037 0,1.22607 -0.4656,2.26589 -0.45007,1.02431 -1.2571,1.78478 -0.80703,0.76047 -1.90894,1.17951 -1.08638,0.41903 -2.40557,0.41903 z m 0,-2.54525 q 0.62079,0 1.14847,-0.21727 0.54319,-0.21728 0.93119,-0.6208 0.40351,-0.41903 0.62079,-0.99326 0.2328,-0.57424 0.2328,-1.27263 0,-0.71391 -0.2328,-1.27262 -0.21728,-0.57423 -0.62079,-0.97775 -0.388,-0.41903 -0.93119,-0.63631 -0.52768,-0.21728 -1.14847,-0.21728 -0.62079,0 -1.16398,0.21728 -0.52768,0.21728 -0.93119,0.63631 -0.388,0.40352 -0.62079,0.97775 -0.21728,0.55871 -0.21728,1.27262 0,0.69839 0.21728,1.27263 0.23279,0.57423 0.62079,0.99326 0.40351,0.40352 0.93119,0.6208 0.54319,0.21727 1.16398,0.21727 z m 11.46915,2.54525 q -1.33471,0 -2.57629,-0.32592 -1.22607,-0.34143 -2.00206,-0.8691 l 1.00879,-2.2659 q 0.72943,0.4656 1.67614,0.77599 0.96223,0.29488 1.90893,0.29488 0.63632,0 1.02431,-0.10864 0.388,-0.12416 0.55871,-0.31039 0.18624,-0.20176 0.18624,-0.4656 0,-0.37247 -0.34143,-0.58975 -0.34144,-0.21728 -0.88463,-0.35696 -0.5432,-0.13967 -1.21055,-0.27935 -0.65183,-0.13968 -1.31918,-0.35696 -0.65183,-0.21727 -1.19502,-0.55871 -0.5432,-0.35696 -0.88463,-0.91567 -0.34144,-0.57423 -0.34144,-1.44334 0,-0.97775 0.52767,-1.76926 0.5432,-0.79151 1.61406,-1.27262 1.07087,-0.48111 2.66941,-0.48111 1.07087,0 2.09517,0.24831 1.03983,0.2328 1.84686,0.69839 l -0.94671,2.28141 q -0.77599,-0.41903 -1.53646,-0.62079 -0.76047,-0.21727 -1.47438,-0.21727 -0.63631,0 -1.02431,0.13967 -0.38799,0.12416 -0.55871,0.34144 -0.17072,0.21728 -0.17072,0.49663 0,0.35696 0.32592,0.57424 0.34143,0.20175 0.88463,0.34143 0.55871,0.12416 1.21054,0.26384 0.66735,0.13968 1.31918,0.35695 0.66736,0.20176 1.21055,0.55872 0.54319,0.34143 0.86911,0.91566 0.34143,0.55872 0.34143,1.41231 0,0.9467 -0.54319,1.75373 -0.52767,0.79151 -1.59854,1.27263 -1.05535,0.48111 -2.6694,0.48111 z"
       id="text3"
       aria-label="STUDIOS" /></g></svg>
